<?xml version="1.0" encoding="utf-8"?>
<!-- Generator: Adobe Illustrator 27.5.0, SVG Export Plug-In . SVG Version: 6.00 Build 0)  -->
<svg version="1.1" id="BASE" xmlns="http://www.w3.org/2000/svg" xmlns:xlink="http://www.w3.org/1999/xlink" x="0px" y="0px"
	 viewBox="0 0 2122 2122" style="enable-background:new 0 0 2122 2122;" xml:space="preserve">
<g>
	<path style="fill:#57852F;" d="M1725.142,1293.868c5.607-9.196,11.243-18.348,16.524-27.599
		c39.896-69.907,81.599-139.119,110.139-214.693c54.064-143.152,58.499-304.519,12.378-450.423
		c-19.832-62.742-50.084-124.409-100.19-167.061c-16.116-13.717-58.588-31.993-61.359,6.015c-0.683,9.371,3.037,18.44,6.683,27.1
		l-81.913-78.22C1368.873,142.109,932.622,84.961,601.364,194.903c-86.637,28.756-229.874,89.829-375.871,226.216
		c55.873-4.454,107.285,40.011,142.173,80.257c34.167,39.414,61.842,86.718,75.964,136.597
		c32.637,115.274,32.817,228.831,40.886,346.374c8.034,117.045,39.472,233.062,96.965,335.655
		c129.144,230.45,391.334,369.193,655.992,336.279c99.303-12.35,196.68-55.336,263.775-129.579
		c25.014-27.679,46.293-59.901,77.915-79.698c24.033-15.044,57.046-20.042,81.63-8.699c8.041,17.981,15.821,36.088,23.3,54.337
		c44.257,107.998,71.094,221.695,84.071,337.548c1.214,10.842,2.986,76.785,10.164,138.644c0.632,0.518,1.781,1.656,3.111,2.99
		c0.423,0.086,2.365,1.391,4.498,2.855c-0.558-1.12,10.387,3.711,12.983,5.14c2.57,0.085,5.141,0.109,7.714,0.002
		c8.1,0.252,6.926-0.217,4.117-0.736c-3.939-0.725-11.028-1.537,0.23-0.53c0.735-0.253,1.329-0.455,1.923-0.656
		c1.073-0.591,2.146-1.182,3.221-1.773c1.007-0.67,1.827-1.21,2.548-1.682c2.663-2.495,5.224-5.087,7.615-7.85l0.407-0.392
		c-17.414-203.562-56.088-388.927-144.453-574.609c3.597-14.533,7.885-27.643,10.395-34.693
		C1700.549,1334.656,1712.772,1314.155,1725.142,1293.868z"/>
	<g>
		<path style="fill:#5D8F33;" d="M1681.251,1389.512c-9.856-20.625-20.08-41.096-30.622-61.423
			c12.073-41.797,36.522-84.765,48.901-109.136c37.562-73.954,76.347-147.609,104.005-226.011
			c25.443-72.122,41.046-149.26,36.667-226.001c-3.714-65.102-12.432-134.011-47.769-190.193
			c-6.148-9.777-12.997-19.616-22.896-25.568c-9.899-5.952-23.64-6.991-32.434,0.498c-9.914,8.439-9.985,23.742-6.943,36.4
			c3.044,12.659,8.407,25.333,6.497,38.21c-39.332-68.158-94.474-112.231-152.221-162.75
			c-59.041-51.649-119.257-97.315-191.768-128.957c-5.396-2.355-10.824-4.621-16.284-6.806c-1.994-3.337-4.044-6.628-6.164-9.858
			c-3.426-5.222-10.288-1.352-9.117,3.978c-57.184-21.136-117.353-33.96-177.555-44.219c-14.236-2.426-28.536-4.699-42.884-6.816
			c-13.495-18.421-27.213-37.169-42.753-53.822c-4.084-4.378-12.026,1.462-8.448,6.518c10.787,15.24,22.536,29.806,33.688,44.801
			c-62.903-8.688-126.685-14.26-190.43-15.882c-88.272-2.246-176.475,3.081-262.182,18.184c-0.375-0.135-0.749-0.27-1.125-0.404
			c-18.311-6.489-40.472-12.818-60.073-9.684c-2.726,0.436-2.31,4.42,0,5.112c9.396,2.811,19.726,4.185,29.353,6.19
			c3.738,0.778,7.456,1.658,11.146,2.635c-104.286,20.414-204.548,55.713-296.345,109.93c-30.041,7.381-60.004,15.115-90.718,21.078
			c26.685-5.181,53.443-10.226,80.272-14.802c-1.955,1.194-3.907,2.394-5.855,3.606c24.245,22.322,46.338,43.092,66.577,64.359
			c-4.159,1.294-8.22,2.777-12.119,4.538c-3.681,1.663-1.825,7.773,2.046,7.554c6.286-0.357,12.576-1.404,18.844-2.712
			c32.511,35.409,60.089,72.99,84.054,121.952c3.378,6.902,6.59,13.873,9.644,20.906c-11.901-3.82-23.728-7.869-35.475-12.135
			c-8.194-2.976-11.449,9.812-3.564,12.929c15.234,6.021,30.659,11.56,46.244,16.627c24.616,62.584,37.804,129.568,46.251,196.47
			c1.197,9.479,2.33,19.044,3.514,28.633c-3.579-2.053-7.14-4.138-10.683-6.259c-6.65-3.979-12.65,6.345-6.06,10.366
			c6.168,3.763,12.391,7.422,18.662,10.982c6.514,49.277,15.95,98.315,43.804,138.582c-11.941-15.497-40.547-7.769-49.771,10.194
			c-9.536,18.57-4.786,40.998,0.914,61.08c38.892,137.04,114.248,264.811,220.016,359.822c-7.108-2.914-14.167-5.949-21.168-9.112
			c-16.827-7.603-32.975-16.622-49.852-24.042c-5.188-2.281-9.268,4.365-4.485,7.673c13.616,9.421,28.742,16.592,43.705,23.656
			c14.765,6.972,29.787,13.417,45.001,19.343c4.376,1.704,8.77,3.363,13.18,4.978c3.424,2.769,6.874,5.508,10.356,8.21
			c141.963,110.229,396.094,197.602,559.627,90.75c61.008-39.862,109.639-96.009,168.245-139.328
			c29.549-21.84,68.955-42.699,98.632-20.014c5.947,12.6,11.769,25.26,17.459,37.983c8.041,17.981,15.821,36.088,23.3,54.337
			c44.257,107.998,71.094,221.695,84.071,337.548c1.214,10.842,2.986,76.785,10.164,138.644c0.632,0.518,1.781,1.656,3.111,2.99
			c0.423,0.086,2.365,1.391,4.498,2.855c-0.558-1.12,10.387,3.711,12.983,5.14c2.57,0.085,5.141,0.109,7.714,0.002
			c8.1,0.252,6.926-0.217,4.117-0.736c-3.939-0.725-11.028-1.537,0.23-0.53c0.735-0.253,1.329-0.455,1.923-0.656
			c1.073-0.591,2.146-1.182,3.221-1.773c1.007-0.67,1.827-1.21,2.548-1.682c2.663-2.495,5.224-5.087,7.615-7.85l0.407-0.392
			c-17.414-203.562-56.088-388.927-144.453-574.609C1681.911,1390.9,1681.582,1390.206,1681.251,1389.512z"/>
		<path style="fill:#6B9B3C;" d="M945.682,1286.463c20.01,11.22,39.989,34.63,63.086,39.88c-42.103-9.571-86.32-9.727-128.49-0.453
			c-15.916,3.5-32.912,9.328-41.532,23.158c-15.655,25.12,6.203,57.414,30.734,73.978c47.828,32.294,108.115,40.776,165.784,38.654
			c38.413-1.414,79.808-8.689,106.2-36.634c26.393-27.946,26.118-82.059-8.604-98.547c13.632-15.911,17.515-37.462,14.231-58.38
			c-70.836-0.208-141.739-8.61-210.918-23.443c-45.679-9.794-90.747-22.394-134.939-37.578
			c22.041,15.693,44.996,30.105,68.711,43.132C894.467,1263.701,921.426,1272.862,945.682,1286.463z"/>
		<path style="fill:#6B9B3C;" d="M1011.217,860.795c-11.772-37.232-34.487-59.635-68.055-75.937
			c-16.219-7.876-34.461-21.424-52.041-8.685c-9.637,6.982-17.726,22.721-7.582,32.836
			c-51.589-51.445-105.702-104.5-174.638-128.075c-36.868-12.609-84.709-12.727-107.082,19.175
			c-17.169,24.48-12.193,57.789-4.147,86.587c10.079,36.081,23.96,71.066,41.208,104.312c27.896,11.88,56.52,22.074,85.638,30.697
			c87.368,25.872,177.859,37.486,268.632,42.444C1016.328,936.547,1022.218,895.591,1011.217,860.795z"/>
		<path style="fill:#6B9B3C;" d="M789.397,1072.49c-18.029-1.267-36.811-2.421-53.531,4.444
			c-16.72,6.865-30.567,24.352-27.01,42.073c2.291,11.419,10.977,20.334,19.458,28.315c12.938,12.175,26.351,23.844,40.19,34.984
			c1.896,0.712,3.795,1.421,5.695,2.124c118.114,43.707,243.65,70.019,369.846,70.466c-2.553-8.351-6.215-16.37-10.817-23.626
			c-18.213-28.72-47.902-47.933-77.362-64.923c38.966-17.705,45.894-74.035,25.005-111.39c-19.233-34.393-54-56.344-88.554-75.902
			c-42.536-2.531-85.037-6.314-127.18-12.435c-74.036-10.753-147.301-29.193-216.476-57.583
			C684.331,972.001,732.281,1028.034,789.397,1072.49z"/>
		<path style="fill:#6B9B3C;" d="M1762.857,814.163c-7.259-35.601-20.448-72.48-55.041-89.953c-1.65-0.834-5.712-1.838-11.303-2.854
			c25.39,90.158,33.141,185.638,24.402,278.724c-1.866,19.882-4.5,39.693-7.904,59.371c16.205-16.7,30.427-41.807,39.772-73.763
			C1768.6,931.6,1774.178,869.685,1762.857,814.163z"/>
		<path style="fill:#6B9B3C;" d="M1470.763,612.649c-4.724-18.828-9.823-37.555-15.327-56.159
			c12.325,105.384,24.829,211.511,51.56,313.939C1504.062,783.537,1491.927,696.991,1470.763,612.649z"/>
		<path style="fill:#6B9B3C;" d="M1607.595,723.229c-1.888-72.289-25.472-143.874-66.92-203.129
			c-14.964-21.394-40.36-43.354-64.142-32.584c-10.723,4.856-16.681,14.297-19.705,25.556
			c29.13,86.79,48.197,176.678,57.214,267.857c4.419,44.687,6.177,89.558,5.721,134.44c2.674,8.673,5.464,17.315,8.386,25.922
			c10.042,29.57,33.159,65.13,67.924,43.318c14.552,91.507,60.466,114.319,100.667,88.371
			c15.872-80.453,18.694-163.468,8.599-244.84c-4.547-36.654-11.714-73.053-21.479-108.745
			C1653.859,715.374,1607.326,712.897,1607.595,723.229z"/>
		<path style="fill:#426623;" d="M1650.629,1328.089c-6.657-12.837-13.442-25.616-20.342-38.341
			c13.493-19.802,23.884-41.38,33.327-63.413c10.287-24.004,19.353-48.51,27.052-73.466c9.446-30.619,16.887-61.847,22.346-93.417
			c3.403-19.678,6.038-39.489,7.904-59.371c8.739-93.085,0.988-188.566-24.402-278.724c-2.62-9.304-5.429-18.551-8.425-27.733
			c-18.041-55.273-42.537-108.399-73.237-157.786c-2.64-4.249-9.303-0.4-6.731,3.935c33.253,56.02,58.532,116.722,75.74,179.622
			c9.765,35.692,16.932,72.091,21.479,108.745c10.095,81.372,7.273,164.388-8.599,244.84c-3.858,19.552-8.481,38.955-13.883,58.144
			c-7.634,27.115-16.81,53.797-27.525,79.849c-9.485,23.059-20.645,45.363-30.878,68.08c-36.861-67.18-76.878-132.841-118.33-197.33
			c5.103-22.334,6.862-45.652,8.875-68.355c2.313-26.067,3.786-52.208,4.424-78.369c0.159-6.543,0.273-13.086,0.34-19.629
			c0.456-44.883-1.302-89.753-5.721-134.44c-9.017-91.179-28.084-181.067-57.214-267.857c-3.953-11.784-8.092-23.511-12.419-35.176
			c-10.117-27.278-21.381-54.12-33.518-80.559c-10.667-23.232-21.3-47.449-34.508-69.563c-1.994-3.337-4.044-6.628-6.164-9.858
			c-3.426-5.222-10.288-1.352-9.117,3.978c0.082,0.373,0.203,0.753,0.367,1.138c10.253,23.944,23.033,46.863,33.714,70.655
			c10.693,23.819,20.48,48,29.779,72.392c11.339,29.742,21.45,59.911,30.475,90.412c5.504,18.604,10.603,37.331,15.327,56.159
			c21.164,84.342,33.299,170.888,36.233,257.78c0.515,15.262,0.749,30.534,0.695,45.807c-0.1,28.724-1.431,57.463-3.676,86.096
			c-1.711,21.82-4.969,43.63-6.87,65.474c-43.45-67.101-88.327-132.956-132.681-197.961c-5.986-8.774-12.064-17.696-18.237-26.723
			c4.076-86.471-13.559-173.962-40.235-255.851c-28.458-87.353-69.121-170.489-118.298-248.004
			c-13.74-21.657-28.234-42.8-43.414-63.474c-1.204-1.641-2.412-3.288-3.619-4.936c-13.495-18.421-27.213-37.169-42.753-53.822
			c-4.084-4.378-12.026,1.462-8.448,6.518c10.787,15.24,22.536,29.806,33.688,44.801c1.965,2.64,3.912,5.292,5.831,7.965
			c13.06,18.199,25.592,36.775,37.764,55.579c24.341,37.598,46.656,76.519,66.625,116.613
			c40.386,81.086,71.672,167.02,88.167,256.245c7.405,40.057,11.483,80.835,13.191,121.592
			c-64.189-93.28-138.43-194.765-226.878-259.76c-16.384-12.039-32.961-23.9-49.739-35.514
			c-13.984-34.763-32.369-67.938-51.487-99.981c-24.326-40.774-51.735-79.482-82.021-116.045
			c-17.414-21.021-35.786-41.093-55.154-60.329c-6.302-6.259-15.623,3.193-9.702,9.702
			c63.292,69.564,118.151,146.952,160.685,230.916c2.589,5.113,5.135,10.245,7.66,15.387
			c-33.998-22.559-68.835-43.962-104.605-63.647c-38.362-21.111-77.797-40.246-118.419-56.715
			c-3.52-8.178-9.518-15.16-14.786-22.319c-6.252-8.495-12.665-16.881-19.395-25.004c-13.743-16.588-29.35-31.767-46.85-44.366
			c-16.397-11.804-34.497-21.171-53.497-28.017c-0.375-0.135-0.749-0.27-1.125-0.404c-18.311-6.489-40.472-12.818-60.073-9.684
			c-2.726,0.436-2.31,4.42,0,5.112c9.396,2.811,19.726,4.185,29.353,6.19c3.738,0.778,7.456,1.658,11.146,2.635
			c6.057,1.604,12.042,3.472,17.936,5.6c18.561,6.7,36.156,16.118,52.098,27.742c16.51,12.037,30.704,26.767,44.031,42.171
			c6.846,7.914,13.378,16.1,19.736,24.41c2.641,3.451,5.119,7.057,7.754,10.514c-38.281-14.687-75.558-21.55-116.445-23.859
			c-71.052-4.011-140.741-5.885-211.697,1.991c-37.654,4.18-73.763,12.518-109.758,21.362
			c-30.041,7.381-60.004,15.115-90.718,21.078c26.685-5.181,53.443-10.226,80.272-14.802
			c67.897-11.578,136.254-20.147,205.043-20.273c93.875-0.171,191.423,15.415,278.028,53.295
			c-19.715-1.835-39.58-2.568-59.291-3.219c-30.35-1.002-60.732-1.004-91.081-0.011c-61.204,2.003-122.536,8.38-182.813,19.219
			c-17.287,3.109-34.515,6.548-51.672,10.315c-12.228,2.685-25.28,4.839-37.493,8.638c-4.159,1.294-8.22,2.777-12.119,4.538
			c-3.681,1.663-1.825,7.773,2.046,7.554c6.286-0.357,12.576-1.404,18.844-2.712c8.296-1.73,16.554-3.914,24.711-5.561
			c14.895-3.007,29.841-5.767,44.828-8.281c30.161-5.059,60.468-9.339,90.88-12.571c60.345-6.412,121.21-9.21,181.886-8.08
			c33.779,0.63,67.461,3.725,101.211,4.4c4.147,2.137,8.264,4.328,12.348,6.578c79.905,44.027,153.257,97.151,220.736,156.971
			c-1.344,0.459-2.74,1.133-4.354,2.071c-4.469,2.598-8.812,5.398-13.319,7.937c-8.434,4.752-17.157,9.053-26.116,12.724
			c-17.951,7.356-36.721,12.647-55.726,16.471c-38.079,7.663-77.076,9.25-115.808,10.178c-41.175,0.987-82.479,3.153-123.66,2.062
			c-44.964-1.191-89.816-5.873-134.036-14.111c-37.185-6.928-73.872-16.372-109.882-27.929c-11.901-3.82-23.728-7.869-35.475-12.135
			c-8.194-2.976-11.449,9.812-3.564,12.929c15.234,6.021,30.659,11.56,46.244,16.627c71.223,23.16,145.76,36.428,220.468,40.41
			c42.896,2.287,85.797,0.346,128.71-0.298c40.419-0.606,80.96-1.695,120.92-8.328c21.776-3.615,43.303-8.999,63.904-16.988
			c10.503-4.074,20.809-8.701,30.727-14.047c4.822-2.598,9.688-5.28,14.238-8.337c4.112-2.764,6.77-5.106,8.505-8.674
			c97.305,88.271,182.234,190.459,256.891,299.156c-0.181,0.014-0.363,0.034-0.547,0.063c-3.471,0.54-6.978,0.789-10.241,2.095
			c-2.589,1.036-5.036,2.624-7.536,3.874c-6.285,3.145-12.656,6.121-19.101,8.927c-12.166,5.296-24.648,9.898-37.274,13.972
			c-24.973,8.06-50.616,13.935-76.517,18.092c-52.753,8.467-106.508,9.657-159.822,8.111c-17.871-0.518-35.752-1.238-53.622-2.214
			c-90.774-4.959-181.264-16.573-268.632-42.444c-29.118-8.622-57.742-18.817-85.638-30.697
			c-25.914-11.037-51.199-23.529-75.668-37.57c-3.579-2.053-7.14-4.138-10.683-6.259c-6.65-3.979-12.65,6.345-6.06,10.366
			c6.168,3.763,12.391,7.422,18.662,10.982c26.985,15.315,54.907,28.762,83.529,40.509c69.175,28.39,142.44,46.83,216.476,57.583
			c42.143,6.121,84.645,9.904,127.18,12.435c12.501,0.743,25.003,1.38,37.5,1.936c54.058,2.401,108.453,2.246,162.202-4.642
			c29.899-3.832,59.549-9.565,88.439-18.245c14.391-4.324,28.563-9.361,42.432-15.149c7.142-2.98,14.222-6.109,21.196-9.468
			c3.169-1.525,6.4-3.005,9.473-4.719c3.796-2.117,6.17-5.1,9.012-8.356c0.308-0.353,0.565-0.714,0.776-1.081
			c15.443,22.703,30.442,45.679,45.017,68.864c36.912,58.72,73.689,117.743,109.048,177.588
			c-14.619,4.912-28.246,12.472-42.177,19.103c-14.533,6.917-29.308,13.309-44.305,19.151
			c-29.675,11.558-60.137,21.073-91.079,28.602c-61.405,14.942-124.533,21.921-187.693,22.254c-2.704,0.015-5.408,0.012-8.112,0.003
			c-126.196-0.448-251.732-26.759-369.846-70.466c-1.9-0.703-3.799-1.412-5.695-2.124c-64.727-24.304-127.396-53.851-187.253-88.473
			c-6.005-3.473-11.401,5.778-5.429,9.289c71.393,41.976,147.026,77.043,225.415,103.977c44.192,15.184,89.26,27.784,134.939,37.578
			c69.178,14.832,140.082,23.234,210.918,23.443c58.753,0.173,117.462-5.291,175.102-17.397
			c35.034-7.358,69.553-17.196,103.129-29.622c16.838-6.231,33.447-13.105,49.768-20.585c16.321-7.48,33.196-15.181,47.057-26.693
			c28.136,47.855,55.329,96.25,80.93,145.449c-17.199-4.858-36.484-4.427-53.279-1.565c-31.343,5.342-59.771,21.393-86.628,37.643
			c-54.471,32.958-109.794,64.126-169.209,87.4c-58.125,22.768-119.082,38.371-181.271,44.422
			c-64.981,6.322-130.952,3.167-195.133-8.694c-36.234-6.697-71.949-16.221-106.684-28.525
			c-10.353-3.667-20.619-7.581-30.782-11.747c-7.108-2.914-14.167-5.949-21.168-9.112c-16.827-7.603-32.975-16.622-49.852-24.042
			c-5.188-2.281-9.268,4.365-4.485,7.673c13.616,9.421,28.742,16.592,43.705,23.656c14.765,6.972,29.787,13.417,45.001,19.343
			c4.376,1.704,8.77,3.363,13.18,4.978c26.041,9.534,52.653,17.504,79.642,23.881c62.963,14.876,127.964,21.056,192.601,18.257
			c63.134-2.733,125.635-14.579,185.528-34.678c58.806-19.734,114.921-46.888,168.502-78.002
			c31.579-18.338,61.974-40.575,96.718-52.667c16.094-5.602,32.898-8.708,49.976-7.803c11.537,0.612,22.419,3.52,32.951,7.656
			c10.63,20.836,20.958,41.821,30.941,62.975c5.947,12.6,11.769,25.26,17.459,37.983c8.041,17.981,15.821,36.088,23.3,54.337
			c44.257,107.998,71.094,221.695,84.071,337.548c1.214,10.842,2.986,76.785,10.164,138.644c0.632,0.518,1.781,1.656,3.111,2.99
			c0.423,0.086,2.365,1.391,4.498,2.855c-0.558-1.12,10.387,3.711,12.983,5.14c2.57,0.085,5.141,0.109,7.714,0.002
			c8.1,0.252,6.926-0.217,4.117-0.736c-3.939-0.725-11.028-1.537,0.23-0.53c0.735-0.253,1.329-0.455,1.923-0.656
			c1.073-0.591,2.146-1.182,3.221-1.773c1.007-0.67,1.827-1.21,2.548-1.682c2.663-2.495,5.224-5.087,7.615-7.85l0.407-0.392
			c-17.414-203.562-56.088-388.927-144.453-574.609c-0.33-0.693-0.659-1.386-0.99-2.08
			C1671.395,1368.888,1661.171,1348.416,1650.629,1328.089z"/>
	</g>
</g>
</svg>
